<svg xmlns="http://www.w3.org/2000/svg" viewBox="0 0 800 480" width="800" height="480"><defs><marker id="ah" markerWidth="10" markerHeight="10" refX="8" refY="5" orient="auto"><path d="M0 0 L10 5 L0 10z" fill="#1c1f2e"/></marker></defs><rect width="800" height="480" fill="#fff"/><rect x="20" y="20" width="760" height="440" rx="12" fill="#fff" stroke="#1c1f2e" stroke-width="2"/><path d="M32 20 h736 a12 12 0 0 1 12 12 v22 h-760 v-22 a12 12 0 0 1 12 -12z" fill="#4f46e5"/><line x1="20" y1="54" x2="780" y2="54" stroke="#1c1f2e" stroke-width="2" stroke-linecap="round"/><text x="34" y="43" font-family="Nunito, 'Segoe UI', system-ui, sans-serif" font-size="14" font-weight="700" fill="#fff" text-anchor="start">Мой день — Word</text><text x="702" y="43" font-family="Nunito, 'Segoe UI', system-ui, sans-serif" font-size="15" font-weight="700" fill="#fff" text-anchor="middle">—</text><text x="730" y="43" font-family="Nunito, 'Segoe UI', system-ui, sans-serif" font-size="15" font-weight="700" fill="#fff" text-anchor="middle">▢</text><text x="758" y="43" font-family="Nunito, 'Segoe UI', system-ui, sans-serif" font-size="15" font-weight="700" fill="#fff" text-anchor="middle">✕</text><rect x="21" y="55" width="758" height="140" rx="0" fill="#f7f7fb" stroke="#1c1f2e" stroke-width="2"/><text x="54.0" y="81" font-family="Nunito, 'Segoe UI', system-ui, sans-serif" font-size="13" font-weight="600" fill="#8a8f9e" text-anchor="middle">Файл</text><rect x="81" y="61" width="70" height="30" rx="6" fill="#fff" stroke="#1c1f2e" stroke-width="2"/><text x="116.0" y="81" font-family="Nunito, 'Segoe UI', system-ui, sans-serif" font-size="13" font-weight="800" fill="#4f46e5" text-anchor="middle">Главная</text><text x="190.0" y="81" font-family="Nunito, 'Segoe UI', system-ui, sans-serif" font-size="13" font-weight="600" fill="#8a8f9e" text-anchor="middle">Вставка</text><text x="280.0" y="81" font-family="Nunito, 'Segoe UI', system-ui, sans-serif" font-size="13" font-weight="600" fill="#8a8f9e" text-anchor="middle">Конструктор</text><text x="362.0" y="81" font-family="Nunito, 'Segoe UI', system-ui, sans-serif" font-size="13" font-weight="600" fill="#8a8f9e" text-anchor="middle">Макет</text><text x="412.0" y="81" font-family="Nunito, 'Segoe UI', system-ui, sans-serif" font-size="13" font-weight="600" fill="#8a8f9e" text-anchor="middle">Вид</text><line x1="21" y1="95" x2="779" y2="95" stroke="#dfe3ee" stroke-width="2" stroke-linecap="round"/><rect x="41" y="111" width="30" height="30" rx="6" fill="#ffd84d" stroke="#1c1f2e" stroke-width="2"/><circle cx="46" cy="118" r="2.2" fill="#1c1f2e"/><line x1="52" y1="118" x2="66" y2="118" stroke="#1c1f2e" stroke-width="2" stroke-linecap="round"/><circle cx="46" cy="126" r="2.2" fill="#1c1f2e"/><line x1="52" y1="126" x2="66" y2="126" stroke="#1c1f2e" stroke-width="2" stroke-linecap="round"/><circle cx="46" cy="134" r="2.2" fill="#1c1f2e"/><line x1="52" y1="134" x2="66" y2="134" stroke="#1c1f2e" stroke-width="2" stroke-linecap="round"/><rect x="77" y="111" width="30" height="30" rx="6" fill="#ffd84d" stroke="#1c1f2e" stroke-width="2"/><text x="79" y="121" font-family="Nunito, 'Segoe UI', system-ui, sans-serif" font-size="8" font-weight="800" fill="#1c1f2e" text-anchor="start">1</text><line x1="88" y1="118" x2="102" y2="118" stroke="#1c1f2e" stroke-width="2" stroke-linecap="round"/><text x="79" y="129" font-family="Nunito, 'Segoe UI', system-ui, sans-serif" font-size="8" font-weight="800" fill="#1c1f2e" text-anchor="start">2</text><line x1="88" y1="126" x2="102" y2="126" stroke="#1c1f2e" stroke-width="2" stroke-linecap="round"/><text x="79" y="137" font-family="Nunito, 'Segoe UI', system-ui, sans-serif" font-size="8" font-weight="800" fill="#1c1f2e" text-anchor="start">3</text><line x1="88" y1="134" x2="102" y2="134" stroke="#1c1f2e" stroke-width="2" stroke-linecap="round"/><rect x="131" y="113" width="30" height="26" rx="6" fill="#fff" stroke="#c9ccd6" stroke-width="1.5"/><line x1="138" y1="117" x2="154" y2="117" stroke="#1c1f2e" stroke-width="2" stroke-linecap="round"/><line x1="138" y1="123" x2="148" y2="123" stroke="#1c1f2e" stroke-width="2" stroke-linecap="round"/><line x1="138" y1="129" x2="154" y2="129" stroke="#1c1f2e" stroke-width="2" stroke-linecap="round"/><line x1="138" y1="135" x2="146" y2="135" stroke="#1c1f2e" stroke-width="2" stroke-linecap="round"/><rect x="167" y="113" width="30" height="26" rx="6" fill="#ffd84d" stroke="#1c1f2e" stroke-width="2"/><line x1="174.0" y1="117" x2="190.0" y2="117" stroke="#1c1f2e" stroke-width="2" stroke-linecap="round"/><line x1="177.0" y1="123" x2="187.0" y2="123" stroke="#1c1f2e" stroke-width="2" stroke-linecap="round"/><line x1="174.0" y1="129" x2="190.0" y2="129" stroke="#1c1f2e" stroke-width="2" stroke-linecap="round"/><line x1="178.0" y1="135" x2="186.0" y2="135" stroke="#1c1f2e" stroke-width="2" stroke-linecap="round"/><rect x="203" y="113" width="30" height="26" rx="6" fill="#fff" stroke="#c9ccd6" stroke-width="1.5"/><line x1="210" y1="117" x2="226" y2="117" stroke="#1c1f2e" stroke-width="2" stroke-linecap="round"/><line x1="216" y1="123" x2="226" y2="123" stroke="#1c1f2e" stroke-width="2" stroke-linecap="round"/><line x1="210" y1="129" x2="226" y2="129" stroke="#1c1f2e" stroke-width="2" stroke-linecap="round"/><line x1="218" y1="135" x2="226" y2="135" stroke="#1c1f2e" stroke-width="2" stroke-linecap="round"/><rect x="239" y="113" width="30" height="26" rx="6" fill="#fff" stroke="#c9ccd6" stroke-width="1.5"/><line x1="246" y1="117" x2="262" y2="117" stroke="#1c1f2e" stroke-width="2" stroke-linecap="round"/><line x1="246" y1="123" x2="262" y2="123" stroke="#1c1f2e" stroke-width="2" stroke-linecap="round"/><line x1="246" y1="129" x2="262" y2="129" stroke="#1c1f2e" stroke-width="2" stroke-linecap="round"/><line x1="246" y1="135" x2="262" y2="135" stroke="#1c1f2e" stroke-width="2" stroke-linecap="round"/><circle cx="56" cy="169" r="15" fill="#ffd84d" stroke="#1c1f2e" stroke-width="2"/><text x="56" y="174" font-family="Nunito, 'Segoe UI', system-ui, sans-serif" font-size="14" font-weight="800" fill="#1c1f2e" text-anchor="middle">1</text><circle cx="92" cy="169" r="15" fill="#ffd84d" stroke="#1c1f2e" stroke-width="2"/><text x="92" y="174" font-family="Nunito, 'Segoe UI', system-ui, sans-serif" font-size="14" font-weight="800" fill="#1c1f2e" text-anchor="middle">2</text><circle cx="182" cy="169" r="15" fill="#ffd84d" stroke="#1c1f2e" stroke-width="2"/><text x="182" y="174" font-family="Nunito, 'Segoe UI', system-ui, sans-serif" font-size="14" font-weight="800" fill="#1c1f2e" text-anchor="middle">3</text><text x="311" y="133" font-family="Nunito, 'Segoe UI', system-ui, sans-serif" font-size="12" font-weight="700" fill="#8a8f9e" text-anchor="start">группа «Абзац»</text><rect x="150" y="205" width="500" height="255" rx="0" fill="#fff" stroke="#dfe3ee" stroke-width="2"/><text x="400" y="247" font-family="Nunito, 'Segoe UI', system-ui, sans-serif" font-size="22" font-weight="900" fill="#1c1f2e" text-anchor="middle">Мой день</text><text x="200" y="283" font-family="Nunito, 'Segoe UI', system-ui, sans-serif" font-size="15" font-weight="800" fill="#1c1f2e" text-anchor="start">1.</text><text x="222" y="283" font-family="Nunito, 'Segoe UI', system-ui, sans-serif" font-size="15" font-weight="600" fill="#1c1f2e" text-anchor="start">Проснуться</text><text x="200" y="307" font-family="Nunito, 'Segoe UI', system-ui, sans-serif" font-size="15" font-weight="800" fill="#1c1f2e" text-anchor="start">2.</text><text x="222" y="307" font-family="Nunito, 'Segoe UI', system-ui, sans-serif" font-size="15" font-weight="600" fill="#1c1f2e" text-anchor="start">Позавтракать</text><text x="200" y="331" font-family="Nunito, 'Segoe UI', system-ui, sans-serif" font-size="15" font-weight="800" fill="#1c1f2e" text-anchor="start">3.</text><text x="222" y="331" font-family="Nunito, 'Segoe UI', system-ui, sans-serif" font-size="15" font-weight="600" fill="#1c1f2e" text-anchor="start">Школа</text><circle cx="206" cy="360" r="3" fill="#1c1f2e"/><text x="222" y="365" font-family="Nunito, 'Segoe UI', system-ui, sans-serif" font-size="15" font-weight="600" fill="#1c1f2e" text-anchor="start">Пельмени</text><circle cx="206" cy="384" r="3" fill="#1c1f2e"/><text x="222" y="389" font-family="Nunito, 'Segoe UI', system-ui, sans-serif" font-size="15" font-weight="600" fill="#1c1f2e" text-anchor="start">Блины</text><circle cx="500" cy="241" r="15" fill="#ffd84d" stroke="#1c1f2e" stroke-width="2"/><text x="500" y="246" font-family="Nunito, 'Segoe UI', system-ui, sans-serif" font-size="14" font-weight="800" fill="#1c1f2e" text-anchor="middle">3</text><text x="522" y="246" font-family="Nunito, 'Segoe UI', system-ui, sans-serif" font-size="14" font-weight="700" fill="#1c1f2e" text-anchor="start">Заголовок по центру (Ctrl+E)</text><circle cx="340" cy="305" r="15" fill="#ffd84d" stroke="#1c1f2e" stroke-width="2"/><text x="340" y="310" font-family="Nunito, 'Segoe UI', system-ui, sans-serif" font-size="14" font-weight="800" fill="#1c1f2e" text-anchor="middle">2</text><text x="362" y="310" font-family="Nunito, 'Segoe UI', system-ui, sans-serif" font-size="14" font-weight="700" fill="#1c1f2e" text-anchor="start">Список с цифрами</text><circle cx="340" cy="375" r="15" fill="#ffd84d" stroke="#1c1f2e" stroke-width="2"/><text x="340" y="380" font-family="Nunito, 'Segoe UI', system-ui, sans-serif" font-size="14" font-weight="800" fill="#1c1f2e" text-anchor="middle">1</text><text x="362" y="380" font-family="Nunito, 'Segoe UI', system-ui, sans-serif" font-size="14" font-weight="700" fill="#1c1f2e" text-anchor="start">Список с точками</text></svg>