<svg xmlns="http://www.w3.org/2000/svg" viewBox="0 0 820 480" width="820" height="480"><defs><marker id="ah" markerWidth="10" markerHeight="10" refX="8" refY="5" orient="auto"><path d="M0 0 L10 5 L0 10z" fill="#1c1f2e"/></marker></defs><rect width="820" height="480" fill="#fff"/><path d="M110 120 a90 90 0 0 1 180 0 v170 a90 90 0 0 1 -180 0z" fill="#fff" stroke="#1c1f2e" stroke-width="3"/><line x1="200" y1="30" x2="200" y2="190" stroke="#1c1f2e" stroke-width="3" stroke-linecap="round"/><line x1="110" y1="190" x2="290" y2="190" stroke="#1c1f2e" stroke-width="3" stroke-linecap="round"/><rect x="191" y="90" width="18" height="40" rx="9" fill="#fff" stroke="#1c1f2e" stroke-width="2"/><path d="M110 120 a90 90 0 0 1 90 -90 v160 h-90z" fill="#ffd84d" fill-opacity=".6"/><circle cx="150" cy="110" r="15" fill="#ffd84d" stroke="#1c1f2e" stroke-width="2"/><text x="150" y="115" font-family="Nunito, 'Segoe UI', system-ui, sans-serif" font-size="14" font-weight="800" fill="#1c1f2e" text-anchor="middle">1</text><circle cx="250" cy="110" r="15" fill="#ffd84d" stroke="#1c1f2e" stroke-width="2"/><text x="250" y="115" font-family="Nunito, 'Segoe UI', system-ui, sans-serif" font-size="14" font-weight="800" fill="#1c1f2e" text-anchor="middle">2</text><circle cx="200" cy="60" r="15" fill="#ffd84d" stroke="#1c1f2e" stroke-width="2"/><text x="200" y="65" font-family="Nunito, 'Segoe UI', system-ui, sans-serif" font-size="14" font-weight="800" fill="#1c1f2e" text-anchor="middle">3</text><text x="40" y="400" font-family="Nunito, 'Segoe UI', system-ui, sans-serif" font-size="15" font-weight="700" fill="#1c1f2e" text-anchor="start">Левая кнопка: клик, двойной клик</text><text x="40" y="428" font-family="Nunito, 'Segoe UI', system-ui, sans-serif" font-size="15" font-weight="700" fill="#1c1f2e" text-anchor="start">Правая кнопка: меню «что можно сделать»</text><text x="40" y="456" font-family="Nunito, 'Segoe UI', system-ui, sans-serif" font-size="15" font-weight="700" fill="#1c1f2e" text-anchor="start">Колёсико: прокрутка страницы</text><circle cx="22" cy="395" r="15" fill="#ffd84d" stroke="#1c1f2e" stroke-width="2"/><text x="22" y="400" font-family="Nunito, 'Segoe UI', system-ui, sans-serif" font-size="14" font-weight="800" fill="#1c1f2e" text-anchor="middle">1</text><circle cx="22" cy="423" r="15" fill="#ffd84d" stroke="#1c1f2e" stroke-width="2"/><text x="22" y="428" font-family="Nunito, 'Segoe UI', system-ui, sans-serif" font-size="14" font-weight="800" fill="#1c1f2e" text-anchor="middle">2</text><circle cx="22" cy="451" r="15" fill="#ffd84d" stroke="#1c1f2e" stroke-width="2"/><text x="22" y="456" font-family="Nunito, 'Segoe UI', system-ui, sans-serif" font-size="14" font-weight="800" fill="#1c1f2e" text-anchor="middle">3</text><rect x="364" y="44" width="440" height="300" rx="12" fill="#f3f4f8" stroke="#1c1f2e" stroke-width="2"/><rect x="380" y="60" width="44" height="36" rx="7" fill="#ffd84d" stroke="#1c1f2e" stroke-width="2"/><line x1="382" y1="95" x2="422" y2="95" stroke="#1c1f2e" stroke-width="4" stroke-linecap="round"/><text x="402.0" y="83.0" font-family="Nunito, 'Segoe UI', system-ui, sans-serif" font-size="13" font-weight="800" fill="#1c1f2e" text-anchor="middle">Esc</text><rect x="432" y="60" width="36" height="36" rx="7" fill="#fff" stroke="#1c1f2e" stroke-width="2"/><line x1="434" y1="95" x2="466" y2="95" stroke="#1c1f2e" stroke-width="4" stroke-linecap="round"/><text x="450.0" y="83.0" font-family="Nunito, 'Segoe UI', system-ui, sans-serif" font-size="13" font-weight="800" fill="#1c1f2e" text-anchor="middle">1</text><rect x="474" y="60" width="36" height="36" rx="7" fill="#fff" stroke="#1c1f2e" stroke-width="2"/><line x1="476" y1="95" x2="508" y2="95" stroke="#1c1f2e" stroke-width="4" stroke-linecap="round"/><text x="492.0" y="83.0" font-family="Nunito, 'Segoe UI', system-ui, sans-serif" font-size="13" font-weight="800" fill="#1c1f2e" text-anchor="middle">2</text><rect x="516" y="60" width="36" height="36" rx="7" fill="#fff" stroke="#1c1f2e" stroke-width="2"/><line x1="518" y1="95" x2="550" y2="95" stroke="#1c1f2e" stroke-width="4" stroke-linecap="round"/><text x="534.0" y="83.0" font-family="Nunito, 'Segoe UI', system-ui, sans-serif" font-size="13" font-weight="800" fill="#1c1f2e" text-anchor="middle">3</text><rect x="558" y="60" width="36" height="36" rx="7" fill="#fff" stroke="#1c1f2e" stroke-width="2"/><line x1="560" y1="95" x2="592" y2="95" stroke="#1c1f2e" stroke-width="4" stroke-linecap="round"/><text x="576.0" y="83.0" font-family="Nunito, 'Segoe UI', system-ui, sans-serif" font-size="13" font-weight="800" fill="#1c1f2e" text-anchor="middle">4</text><rect x="600" y="60" width="36" height="36" rx="7" fill="#fff" stroke="#1c1f2e" stroke-width="2"/><line x1="602" y1="95" x2="634" y2="95" stroke="#1c1f2e" stroke-width="4" stroke-linecap="round"/><text x="618.0" y="83.0" font-family="Nunito, 'Segoe UI', system-ui, sans-serif" font-size="13" font-weight="800" fill="#1c1f2e" text-anchor="middle">5</text><rect x="642" y="60" width="36" height="36" rx="7" fill="#fff" stroke="#1c1f2e" stroke-width="2"/><line x1="644" y1="95" x2="676" y2="95" stroke="#1c1f2e" stroke-width="4" stroke-linecap="round"/><text x="660.0" y="83.0" font-family="Nunito, 'Segoe UI', system-ui, sans-serif" font-size="13" font-weight="800" fill="#1c1f2e" text-anchor="middle">6</text><rect x="684" y="60" width="36" height="36" rx="7" fill="#fff" stroke="#1c1f2e" stroke-width="2"/><line x1="686" y1="95" x2="718" y2="95" stroke="#1c1f2e" stroke-width="4" stroke-linecap="round"/><text x="702.0" y="83.0" font-family="Nunito, 'Segoe UI', system-ui, sans-serif" font-size="13" font-weight="800" fill="#1c1f2e" text-anchor="middle">7</text><rect x="726" y="60" width="62" height="36" rx="7" fill="#ffd84d" stroke="#1c1f2e" stroke-width="2"/><line x1="728" y1="95" x2="786" y2="95" stroke="#1c1f2e" stroke-width="4" stroke-linecap="round"/><text x="757.0" y="83.0" font-family="Nunito, 'Segoe UI', system-ui, sans-serif" font-size="13" font-weight="800" fill="#1c1f2e" text-anchor="middle">⌫</text><rect x="380" y="104" width="56" height="36" rx="7" fill="#fff" stroke="#1c1f2e" stroke-width="2"/><line x1="382" y1="139" x2="434" y2="139" stroke="#1c1f2e" stroke-width="4" stroke-linecap="round"/><text x="408.0" y="127.0" font-family="Nunito, 'Segoe UI', system-ui, sans-serif" font-size="13" font-weight="800" fill="#1c1f2e" text-anchor="middle">Tab</text><rect x="444" y="104" width="36" height="36" rx="7" fill="#fff" stroke="#1c1f2e" stroke-width="2"/><line x1="446" y1="139" x2="478" y2="139" stroke="#1c1f2e" stroke-width="4" stroke-linecap="round"/><text x="462.0" y="127.0" font-family="Nunito, 'Segoe UI', system-ui, sans-serif" font-size="13" font-weight="800" fill="#1c1f2e" text-anchor="middle">Й</text><rect x="486" y="104" width="36" height="36" rx="7" fill="#fff" stroke="#1c1f2e" stroke-width="2"/><line x1="488" y1="139" x2="520" y2="139" stroke="#1c1f2e" stroke-width="4" stroke-linecap="round"/><text x="504.0" y="127.0" font-family="Nunito, 'Segoe UI', system-ui, sans-serif" font-size="13" font-weight="800" fill="#1c1f2e" text-anchor="middle">Ц</text><rect x="528" y="104" width="36" height="36" rx="7" fill="#fff" stroke="#1c1f2e" stroke-width="2"/><line x1="530" y1="139" x2="562" y2="139" stroke="#1c1f2e" stroke-width="4" stroke-linecap="round"/><text x="546.0" y="127.0" font-family="Nunito, 'Segoe UI', system-ui, sans-serif" font-size="13" font-weight="800" fill="#1c1f2e" text-anchor="middle">У</text><rect x="570" y="104" width="36" height="36" rx="7" fill="#fff" stroke="#1c1f2e" stroke-width="2"/><line x1="572" y1="139" x2="604" y2="139" stroke="#1c1f2e" stroke-width="4" stroke-linecap="round"/><text x="588.0" y="127.0" font-family="Nunito, 'Segoe UI', system-ui, sans-serif" font-size="13" font-weight="800" fill="#1c1f2e" text-anchor="middle">К</text><rect x="612" y="104" width="36" height="36" rx="7" fill="#fff" stroke="#1c1f2e" stroke-width="2"/><line x1="614" y1="139" x2="646" y2="139" stroke="#1c1f2e" stroke-width="4" stroke-linecap="round"/><text x="630.0" y="127.0" font-family="Nunito, 'Segoe UI', system-ui, sans-serif" font-size="13" font-weight="800" fill="#1c1f2e" text-anchor="middle">Е</text><rect x="654" y="104" width="36" height="36" rx="7" fill="#fff" stroke="#1c1f2e" stroke-width="2"/><line x1="656" y1="139" x2="688" y2="139" stroke="#1c1f2e" stroke-width="4" stroke-linecap="round"/><text x="672.0" y="127.0" font-family="Nunito, 'Segoe UI', system-ui, sans-serif" font-size="13" font-weight="800" fill="#1c1f2e" text-anchor="middle">Н</text><rect x="696" y="104" width="40" height="36" rx="7" fill="#fff" stroke="#1c1f2e" stroke-width="2"/><line x1="698" y1="139" x2="734" y2="139" stroke="#1c1f2e" stroke-width="4" stroke-linecap="round"/><text x="716.0" y="127.0" font-family="Nunito, 'Segoe UI', system-ui, sans-serif" font-size="13" font-weight="800" fill="#1c1f2e" text-anchor="middle"></text><rect x="380" y="148" width="66" height="36" rx="7" fill="#fff" stroke="#1c1f2e" stroke-width="2"/><line x1="382" y1="183" x2="444" y2="183" stroke="#1c1f2e" stroke-width="4" stroke-linecap="round"/><text x="413.0" y="171.0" font-family="Nunito, 'Segoe UI', system-ui, sans-serif" font-size="13" font-weight="800" fill="#1c1f2e" text-anchor="middle">Caps</text><rect x="454" y="148" width="36" height="36" rx="7" fill="#fff" stroke="#1c1f2e" stroke-width="2"/><line x1="456" y1="183" x2="488" y2="183" stroke="#1c1f2e" stroke-width="4" stroke-linecap="round"/><text x="472.0" y="171.0" font-family="Nunito, 'Segoe UI', system-ui, sans-serif" font-size="13" font-weight="800" fill="#1c1f2e" text-anchor="middle">Ф</text><rect x="496" y="148" width="36" height="36" rx="7" fill="#fff" stroke="#1c1f2e" stroke-width="2"/><line x1="498" y1="183" x2="530" y2="183" stroke="#1c1f2e" stroke-width="4" stroke-linecap="round"/><text x="514.0" y="171.0" font-family="Nunito, 'Segoe UI', system-ui, sans-serif" font-size="13" font-weight="800" fill="#1c1f2e" text-anchor="middle">Ы</text><rect x="538" y="148" width="36" height="36" rx="7" fill="#fff" stroke="#1c1f2e" stroke-width="2"/><line x1="540" y1="183" x2="572" y2="183" stroke="#1c1f2e" stroke-width="4" stroke-linecap="round"/><text x="556.0" y="171.0" font-family="Nunito, 'Segoe UI', system-ui, sans-serif" font-size="13" font-weight="800" fill="#1c1f2e" text-anchor="middle">В</text><rect x="580" y="148" width="36" height="36" rx="7" fill="#fff" stroke="#1c1f2e" stroke-width="2"/><line x1="582" y1="183" x2="614" y2="183" stroke="#1c1f2e" stroke-width="4" stroke-linecap="round"/><text x="598.0" y="171.0" font-family="Nunito, 'Segoe UI', system-ui, sans-serif" font-size="13" font-weight="800" fill="#1c1f2e" text-anchor="middle">А</text><rect x="622" y="148" width="36" height="36" rx="7" fill="#fff" stroke="#1c1f2e" stroke-width="2"/><line x1="624" y1="183" x2="656" y2="183" stroke="#1c1f2e" stroke-width="4" stroke-linecap="round"/><text x="640.0" y="171.0" font-family="Nunito, 'Segoe UI', system-ui, sans-serif" font-size="13" font-weight="800" fill="#1c1f2e" text-anchor="middle">П</text><rect x="664" y="148" width="88" height="36" rx="7" fill="#ffd84d" stroke="#1c1f2e" stroke-width="2"/><line x1="666" y1="183" x2="750" y2="183" stroke="#1c1f2e" stroke-width="4" stroke-linecap="round"/><text x="708.0" y="171.0" font-family="Nunito, 'Segoe UI', system-ui, sans-serif" font-size="13" font-weight="800" fill="#1c1f2e" text-anchor="middle">Enter</text><rect x="380" y="192" width="86" height="36" rx="7" fill="#ffd84d" stroke="#1c1f2e" stroke-width="2"/><line x1="382" y1="227" x2="464" y2="227" stroke="#1c1f2e" stroke-width="4" stroke-linecap="round"/><text x="423.0" y="215.0" font-family="Nunito, 'Segoe UI', system-ui, sans-serif" font-size="13" font-weight="800" fill="#1c1f2e" text-anchor="middle">Shift</text><rect x="474" y="192" width="36" height="36" rx="7" fill="#fff" stroke="#1c1f2e" stroke-width="2"/><line x1="476" y1="227" x2="508" y2="227" stroke="#1c1f2e" stroke-width="4" stroke-linecap="round"/><text x="492.0" y="215.0" font-family="Nunito, 'Segoe UI', system-ui, sans-serif" font-size="13" font-weight="800" fill="#1c1f2e" text-anchor="middle">Я</text><rect x="516" y="192" width="36" height="36" rx="7" fill="#fff" stroke="#1c1f2e" stroke-width="2"/><line x1="518" y1="227" x2="550" y2="227" stroke="#1c1f2e" stroke-width="4" stroke-linecap="round"/><text x="534.0" y="215.0" font-family="Nunito, 'Segoe UI', system-ui, sans-serif" font-size="13" font-weight="800" fill="#1c1f2e" text-anchor="middle">Ч</text><rect x="558" y="192" width="36" height="36" rx="7" fill="#fff" stroke="#1c1f2e" stroke-width="2"/><line x1="560" y1="227" x2="592" y2="227" stroke="#1c1f2e" stroke-width="4" stroke-linecap="round"/><text x="576.0" y="215.0" font-family="Nunito, 'Segoe UI', system-ui, sans-serif" font-size="13" font-weight="800" fill="#1c1f2e" text-anchor="middle">С</text><rect x="600" y="192" width="36" height="36" rx="7" fill="#fff" stroke="#1c1f2e" stroke-width="2"/><line x1="602" y1="227" x2="634" y2="227" stroke="#1c1f2e" stroke-width="4" stroke-linecap="round"/><text x="618.0" y="215.0" font-family="Nunito, 'Segoe UI', system-ui, sans-serif" font-size="13" font-weight="800" fill="#1c1f2e" text-anchor="middle">М</text><rect x="642" y="192" width="36" height="36" rx="7" fill="#fff" stroke="#1c1f2e" stroke-width="2"/><line x1="644" y1="227" x2="676" y2="227" stroke="#1c1f2e" stroke-width="4" stroke-linecap="round"/><text x="660.0" y="215.0" font-family="Nunito, 'Segoe UI', system-ui, sans-serif" font-size="13" font-weight="800" fill="#1c1f2e" text-anchor="middle">И</text><rect x="684" y="192" width="92" height="36" rx="7" fill="#ffd84d" stroke="#1c1f2e" stroke-width="2"/><line x1="686" y1="227" x2="774" y2="227" stroke="#1c1f2e" stroke-width="4" stroke-linecap="round"/><text x="730.0" y="215.0" font-family="Nunito, 'Segoe UI', system-ui, sans-serif" font-size="13" font-weight="800" fill="#1c1f2e" text-anchor="middle">Shift</text><rect x="380" y="236" width="56" height="36" rx="7" fill="#ffd84d" stroke="#1c1f2e" stroke-width="2"/><line x1="382" y1="271" x2="434" y2="271" stroke="#1c1f2e" stroke-width="4" stroke-linecap="round"/><text x="408.0" y="259.0" font-family="Nunito, 'Segoe UI', system-ui, sans-serif" font-size="13" font-weight="800" fill="#1c1f2e" text-anchor="middle">Ctrl</text><rect x="442" y="236" width="50" height="36" rx="7" fill="#ffd84d" stroke="#1c1f2e" stroke-width="2"/><line x1="444" y1="271" x2="490" y2="271" stroke="#1c1f2e" stroke-width="4" stroke-linecap="round"/><text x="467.0" y="259.0" font-family="Nunito, 'Segoe UI', system-ui, sans-serif" font-size="13" font-weight="800" fill="#1c1f2e" text-anchor="middle">Win</text><rect x="498" y="236" width="46" height="36" rx="7" fill="#ffd84d" stroke="#1c1f2e" stroke-width="2"/><line x1="500" y1="271" x2="542" y2="271" stroke="#1c1f2e" stroke-width="4" stroke-linecap="round"/><text x="521.0" y="259.0" font-family="Nunito, 'Segoe UI', system-ui, sans-serif" font-size="13" font-weight="800" fill="#1c1f2e" text-anchor="middle">Alt</text><rect x="550" y="236" width="120" height="36" rx="7" fill="#ffd84d" stroke="#1c1f2e" stroke-width="2"/><line x1="552" y1="271" x2="668" y2="271" stroke="#1c1f2e" stroke-width="4" stroke-linecap="round"/><text x="610.0" y="259.0" font-family="Nunito, 'Segoe UI', system-ui, sans-serif" font-size="13" font-weight="800" fill="#1c1f2e" text-anchor="middle">Пробел</text><rect x="676" y="236" width="28" height="36" rx="7" fill="#fff" stroke="#1c1f2e" stroke-width="2"/><line x1="678" y1="271" x2="702" y2="271" stroke="#1c1f2e" stroke-width="4" stroke-linecap="round"/><text x="690.0" y="259.0" font-family="Nunito, 'Segoe UI', system-ui, sans-serif" font-size="13" font-weight="800" fill="#1c1f2e" text-anchor="middle">←</text><rect x="708" y="236" width="28" height="36" rx="7" fill="#fff" stroke="#1c1f2e" stroke-width="2"/><line x1="710" y1="271" x2="734" y2="271" stroke="#1c1f2e" stroke-width="4" stroke-linecap="round"/><text x="722.0" y="259.0" font-family="Nunito, 'Segoe UI', system-ui, sans-serif" font-size="13" font-weight="800" fill="#1c1f2e" text-anchor="middle">↑</text><rect x="740" y="236" width="28" height="36" rx="7" fill="#fff" stroke="#1c1f2e" stroke-width="2"/><line x1="742" y1="271" x2="766" y2="271" stroke="#1c1f2e" stroke-width="4" stroke-linecap="round"/><text x="754.0" y="259.0" font-family="Nunito, 'Segoe UI', system-ui, sans-serif" font-size="13" font-weight="800" fill="#1c1f2e" text-anchor="middle">↓</text><rect x="772" y="236" width="28" height="36" rx="7" fill="#fff" stroke="#1c1f2e" stroke-width="2"/><line x1="774" y1="271" x2="798" y2="271" stroke="#1c1f2e" stroke-width="4" stroke-linecap="round"/><text x="786.0" y="259.0" font-family="Nunito, 'Segoe UI', system-ui, sans-serif" font-size="13" font-weight="800" fill="#1c1f2e" text-anchor="middle">→</text><text x="380" y="385" font-family="Nunito, 'Segoe UI', system-ui, sans-serif" font-size="14" font-weight="700" fill="#8a8f9e" text-anchor="start">Жёлтые клавиши — главные в уроке</text></svg>